# Chloe face asset generated locally for the web hero
o ChloeFace
v 0.000000 1.005000 0.000000
v 0.000000 1.005000 0.000000
v 0.000000 1.005000 0.000000
v 0.000000 1.005000 0.000000
v 0.000000 1.005000 0.000000
v 0.000000 1.005000 0.000000
v 0.000000 1.005000 0.000000
v 0.000000 1.005000 0.000000
v 0.000000 1.005000 0.000000
v 0.000000 1.005000 0.000000
v 0.000000 1.005000 0.000000
v 0.000000 1.005000 0.000000
v 0.000000 1.005000 0.000000
v 0.000000 1.005000 0.000000
v 0.000000 1.005000 0.000000
v 0.000000 1.005000 0.000000
v 0.000000 1.005000 0.000000
v 0.000000 1.005000 0.000000
v 0.000000 1.005000 0.000000
v 0.000000 1.005000 0.000000
v 0.000000 1.005000 0.000000
v 0.000000 1.005000 -0.000000
v 0.000000 1.005000 -0.000000
v 0.000000 1.005000 -0.000000
v 0.000000 1.005000 -0.000000
v 0.000000 1.005000 -0.000000
v 0.000000 1.005000 -0.000000
v 0.000000 1.005000 -0.000000
v 0.000000 1.005000 -0.000000
v 0.000000 1.005000 -0.000000
v 0.000000 1.005000 -0.000000
v 0.000000 1.005000 -0.000000
v 0.000000 1.005000 -0.000000
v 0.000000 1.005000 -0.000000
v 0.000000 1.005000 -0.000000
v 0.000000 1.005000 -0.000000
v 0.000000 1.005000 -0.000000
v 0.000000 1.005000 -0.000000
v 0.000000 1.005000 -0.000000
v 0.000000 1.005000 -0.000000
v 0.101642 0.996402 0.000000
v 0.100389 0.996402 0.015598
v 0.096662 0.996402 0.030816
v 0.090552 0.996402 0.045283
v 0.082212 0.996402 0.058644
v 0.071849 0.996402 0.070571
v 0.059718 0.996402 0.080769
v 0.046120 0.996402 0.088983
v 0.031390 0.996402 0.095006
v 0.015890 0.996402 0.098682
v 0.000000 0.996402 0.099919
v -0.015964 0.996402 0.098682
v -0.031533 0.996402 0.095006
v -0.046322 0.996402 0.088983
v -0.059967 0.996402 0.080769
v -0.072133 0.996402 0.070571
v -0.082520 0.996402 0.058644
v -0.090875 0.996402 0.045283
v -0.096993 0.996402 0.030816
v -0.100725 0.996402 0.015598
v -0.101979 0.996402 0.000000
v -0.100725 0.996402 -0.015518
v -0.096993 0.996402 -0.030654
v -0.090875 0.996402 -0.045036
v -0.082520 0.996402 -0.058308
v -0.072133 0.996402 -0.070145
v -0.059967 0.996402 -0.080254
v -0.046322 0.996402 -0.088388
v -0.031533 0.996402 -0.094345
v -0.015964 0.996402 -0.097979
v -0.000000 0.996402 -0.099200
v 0.015890 0.996402 -0.097979
v 0.031390 0.996402 -0.094345
v 0.046120 0.996402 -0.088388
v 0.059718 0.996402 -0.080254
v 0.071849 0.996402 -0.070145
v 0.082212 0.996402 -0.058308
v 0.090552 0.996402 -0.045036
v 0.096662 0.996402 -0.030654
v 0.100389 0.996402 -0.015518
v 0.201734 0.970755 0.000000
v 0.199246 0.970755 0.030841
v 0.191841 0.970755 0.060938
v 0.179704 0.970755 0.089563
v 0.163135 0.970755 0.116031
v 0.142545 0.970755 0.139703
v 0.118451 0.970755 0.160005
v 0.091454 0.970755 0.176424
v 0.062228 0.970755 0.188519
v 0.031493 0.970755 0.195935
v 0.000000 0.970755 0.198436
v -0.031668 0.970755 0.195935
v -0.062540 0.970755 0.188519
v -0.091848 0.970755 0.176424
v -0.118872 0.970755 0.160005
v -0.142954 0.970755 0.139703
v -0.163512 0.970755 0.116031
v -0.180047 0.970755 0.089563
v -0.192155 0.970755 0.060938
v -0.199541 0.970755 0.030841
v -0.202024 0.970755 0.000000
v -0.199541 0.970755 -0.030771
v -0.192155 0.970755 -0.060784
v -0.180047 0.970755 -0.089301
v -0.163512 0.970755 -0.115619
v -0.142954 0.970755 -0.139090
v -0.118872 0.970755 -0.159136
v -0.091848 0.970755 -0.175263
v -0.062540 0.970755 -0.187075
v -0.031668 0.970755 -0.174853
v -0.000000 0.970755 -0.177032
v 0.031493 0.970755 -0.174853
v 0.062228 0.970755 -0.187075
v 0.091454 0.970755 -0.175263
v 0.118451 0.970755 -0.159136
v 0.142545 0.970755 -0.139090
v 0.163135 0.970755 -0.115619
v 0.179704 0.970755 -0.089301
v 0.191841 0.970755 -0.060784
v 0.199246 0.970755 -0.030771
v 0.298437 0.928499 0.000000
v 0.294758 0.928499 0.045526
v 0.283812 0.928499 0.089944
v 0.265865 0.928499 0.132182
v 0.241356 0.928499 0.171235
v 0.210885 0.928499 0.206199
v 0.175209 0.928499 0.236289
v 0.135229 0.928499 0.260810
v 0.091970 0.928499 0.279096
v 0.046525 0.928499 0.290467
v 0.000000 0.928499 0.294337
v -0.046864 0.928499 0.290467
v -0.092509 0.928499 0.279096
v -0.135797 0.928499 0.260810
v -0.175691 0.928499 0.236289
v -0.211248 0.928499 0.206199
v -0.241616 0.928499 0.171235
v -0.266053 0.928499 0.132182
v -0.283956 0.928499 0.089944
v -0.294878 0.928499 0.045526
v -0.298550 0.928499 0.000000
v -0.294878 0.928499 -0.045497
v -0.283956 0.928499 -0.089874
v -0.266053 0.928499 -0.132038
v -0.241616 0.928499 -0.170951
v -0.211248 0.928499 -0.185089
v -0.175691 0.928499 -0.211765
v -0.135797 0.928499 -0.233226
v -0.092509 0.928499 -0.248944
v -0.046864 0.928499 -0.258533
v -0.000000 0.928499 -0.261755
v 0.046525 0.928499 -0.258533
v 0.091970 0.928499 -0.248944
v 0.135229 0.928499 -0.233226
v 0.175209 0.928499 -0.211765
v 0.210885 0.928499 -0.185089
v 0.241356 0.928499 -0.170951
v 0.265865 0.928499 -0.132038
v 0.283812 0.928499 -0.089874
v 0.294758 0.928499 -0.045497
v 0.389987 0.870356 0.000000
v 0.385184 0.870356 0.059452
v 0.370892 0.870356 0.117446
v 0.347459 0.870356 0.172568
v 0.315454 0.870356 0.223496
v 0.275650 0.870356 0.269067
v 0.229011 0.870356 0.308357
v 0.176699 0.870356 0.340688
v 0.120086 0.870356 0.365381
v 0.060695 0.870356 0.381285
v 0.000000 0.870356 0.386851
v -0.061324 0.870356 0.381285
v -0.120948 0.870356 0.365381
v -0.177414 0.870356 0.340688
v -0.229462 0.870356 0.308357
v -0.275894 0.870356 0.269067
v -0.315580 0.870356 0.223496
v -0.347526 0.870356 0.172568
v -0.370932 0.870356 0.117446
v -0.385213 0.870356 0.059452
v -0.390013 0.870356 0.000000
v -0.385213 0.870356 -0.059445
v -0.370932 0.870356 -0.117426
v -0.347526 0.870356 -0.172516
v -0.315580 0.870356 -0.201023
v -0.275894 0.870356 -0.241831
v -0.229462 0.870356 -0.276684
v -0.177414 0.870356 -0.304724
v -0.120948 0.870356 -0.325261
v -0.061324 0.870356 -0.337789
v -0.000000 0.870356 -0.342000
v 0.060695 0.870356 -0.337789
v 0.120086 0.870356 -0.325261
v 0.176699 0.870356 -0.304724
v 0.229011 0.870356 -0.276684
v 0.275650 0.870356 -0.241831
v 0.315454 0.870356 -0.201023
v 0.347459 0.870356 -0.172516
v 0.370892 0.870356 -0.117426
v 0.385184 0.870356 -0.059445
v 0.474832 0.797320 0.000000
v 0.468986 0.797320 0.072377
v 0.451590 0.797320 0.142974
v 0.423071 0.797320 0.210057
v 0.384125 0.797320 0.271997
v 0.335691 0.797320 0.327357
v 0.278916 0.797320 0.375069
v 0.215154 0.797320 0.414691
v 0.146070 0.797320 0.446131
v 0.073703 0.797320 0.467901
v 0.000000 0.797320 0.476015
v -0.074858 0.797320 0.467901
v -0.147395 0.797320 0.446131
v -0.215988 0.797320 0.414691
v -0.279287 0.797320 0.375069
v -0.335828 0.797320 0.327357
v -0.384173 0.797320 0.271997
v -0.423090 0.797320 0.210057
v -0.451598 0.797320 0.142974
v -0.468991 0.797320 0.072377
v -0.474836 0.797320 0.000000
v -0.468991 0.797320 -0.072376
v -0.451598 0.797320 -0.142969
v -0.423090 0.797320 -0.189038
v -0.384173 0.797320 -0.244750
v -0.335828 0.797320 -0.294434
v -0.279287 0.797320 -0.336869
v -0.215988 0.797320 -0.371009
v -0.147395 0.797320 -0.396013
v -0.074858 0.797320 -0.411266
v -0.000000 0.797320 -0.416393
v 0.073703 0.797320 -0.411266
v 0.146070 0.797320 -0.396013
v 0.215154 0.797320 -0.371009
v 0.278916 0.797320 -0.336869
v 0.335691 0.797320 -0.294434
v 0.384125 0.797320 -0.244750
v 0.423071 0.797320 -0.189038
v 0.451590 0.797320 -0.142969
v 0.468986 0.797320 -0.072376
v 0.551543 0.710642 0.000000
v 0.544753 0.710642 0.084068
v 0.524548 0.710643 0.166067
v 0.491427 0.710643 0.243979
v 0.446201 0.710643 0.315897
v 0.389969 0.710643 0.380113
v 0.324053 0.710643 0.435372
v 0.249941 0.710642 0.481574
v 0.169455 0.710642 0.520222
v 0.085242 0.710642 0.550486
v 0.000000 0.710642 0.563079
v -0.087322 0.710642 0.550486
v -0.171427 0.710642 0.520222
v -0.250865 0.710642 0.481574
v -0.324337 0.710643 0.435372
v -0.390038 0.710643 0.380113
v -0.446217 0.710643 0.315897
v -0.491431 0.710643 0.243979
v -0.524550 0.710643 0.166067
v -0.544753 0.710642 0.084068
v -0.551544 0.710642 0.000000
v -0.544753 0.710642 -0.084068
v -0.524550 0.710643 -0.166066
v -0.491431 0.710643 -0.219578
v -0.446217 0.710643 -0.284289
v -0.390038 0.710643 -0.342000
v -0.324337 0.710643 -0.391290
v -0.250865 0.710642 -0.430945
v -0.171427 0.710642 -0.459989
v -0.087322 0.710642 -0.477706
v -0.000000 0.710642 -0.483661
v 0.085242 0.710642 -0.477706
v 0.169455 0.710642 -0.459989
v 0.249941 0.710642 -0.430945
v 0.324053 0.710643 -0.391290
v 0.389969 0.710643 -0.342000
v 0.446201 0.710643 -0.284289
v 0.491427 0.710643 -0.219578
v 0.524548 0.710643 -0.166066
v 0.544753 0.710642 -0.084068
v 0.618816 0.611805 0.000000
v 0.611197 0.611805 0.094322
v 0.588529 0.611806 0.186322
v 0.551369 0.611807 0.273735
v 0.500633 0.611814 0.354417
v 0.437562 0.611827 0.426432
v 0.363655 0.611825 0.488328
v 0.280489 0.611811 0.540320
v 0.189844 0.611810 0.586665
v 0.095010 0.611809 0.629769
v 0.000001 0.611806 0.650544
v -0.098620 0.611809 0.629769
v -0.192676 0.611810 0.586665
v -0.281477 0.611811 0.540320
v -0.363864 0.611825 0.488328
v -0.437596 0.611827 0.426432
v -0.500638 0.611814 0.354417
v -0.551370 0.611807 0.273735
v -0.588529 0.611806 0.186322
v -0.611197 0.611805 0.094322
v -0.618816 0.611805 0.000000
v -0.611197 0.611805 -0.094322
v -0.588529 0.611806 -0.186321
v -0.551370 0.611807 -0.246360
v -0.500638 0.611814 -0.318964
v -0.437596 0.611827 -0.383714
v -0.363864 0.611825 -0.439016
v -0.281477 0.611811 -0.483508
v -0.192676 0.611810 -0.516094
v -0.098620 0.611809 -0.535973
v -0.000001 0.611806 -0.542654
v 0.095010 0.611809 -0.535973
v 0.189844 0.611810 -0.516094
v 0.280489 0.611811 -0.483508
v 0.363655 0.611825 -0.439016
v 0.437562 0.611827 -0.383714
v 0.500633 0.611814 -0.318964
v 0.551369 0.611807 -0.246360
v 0.588529 0.611806 -0.186321
v 0.611197 0.611805 -0.094322
v 0.675500 0.502500 0.000000
v 0.667183 0.502500 0.102962
v 0.642439 0.502501 0.203389
v 0.601876 0.502504 0.298809
v 0.546495 0.502535 0.386884
v 0.477670 0.502689 0.465523
v 0.397086 0.502866 0.533263
v 0.306408 0.502900 0.590865
v 0.207034 0.503544 0.646215
v 0.102795 0.503557 0.707688
v 0.000008 0.502761 0.741253
v -0.108698 0.503557 0.707688
v -0.210914 0.503544 0.646215
v -0.307435 0.502900 0.590865
v -0.397239 0.502866 0.533263
v -0.477687 0.502689 0.465523
v -0.546497 0.502535 0.386884
v -0.601876 0.502504 0.298809
v -0.642439 0.502501 0.203389
v -0.667183 0.502500 0.102962
v -0.675500 0.502500 0.000000
v -0.667183 0.502500 -0.102962
v -0.642439 0.502501 -0.183050
v -0.601876 0.502504 -0.268926
v -0.546497 0.502535 -0.348181
v -0.477687 0.502689 -0.418863
v -0.397239 0.502866 -0.479230
v -0.307435 0.502900 -0.527798
v -0.210914 0.503544 -0.563369
v -0.108698 0.503557 -0.585068
v -0.000008 0.502761 -0.592361
v 0.102795 0.503557 -0.585068
v 0.207034 0.503544 -0.563369
v 0.306408 0.502900 -0.527798
v 0.397086 0.502866 -0.479230
v 0.477670 0.502689 -0.418863
v 0.546495 0.502535 -0.348181
v 0.601876 0.502504 -0.268926
v 0.642439 0.502501 -0.183050
v 0.667183 0.502500 -0.102962
v 0.720626 0.384597 0.000000
v 0.711754 0.384597 0.109840
v 0.685356 0.384597 0.216976
v 0.642083 0.384601 0.318771
v 0.583006 0.384669 0.412737
v 0.509618 0.385359 0.496740
v 0.423881 0.387277 0.569989
v 0.327707 0.388556 0.636846
v 0.221370 0.397829 0.713969
v 0.108694 0.400141 0.800796
v 0.000037 0.388271 0.838438
v -0.117569 0.400141 0.800796
v -0.226380 0.397829 0.713969
v -0.328754 0.388556 0.636846
v -0.423997 0.387277 0.569989
v -0.509627 0.385359 0.496740
v -0.583007 0.384669 0.412737
v -0.642083 0.384601 0.318771
v -0.685356 0.384597 0.216976
v -0.711754 0.384597 0.109840
v -0.720626 0.384597 0.000000
v -0.711754 0.384597 -0.109840
v -0.685356 0.384597 -0.195278
v -0.642083 0.384601 -0.286892
v -0.583007 0.384669 -0.371441
v -0.509627 0.385359 -0.446845
v -0.423997 0.387277 -0.511245
v -0.328754 0.388556 -0.563057
v -0.226380 0.397829 -0.601005
v -0.117569 0.400141 -0.624153
v -0.000037 0.388271 -0.631934
v 0.108694 0.400141 -0.624153
v 0.221370 0.397829 -0.601005
v 0.327707 0.388556 -0.563057
v 0.423881 0.387277 -0.511245
v 0.509618 0.385359 -0.446845
v 0.583006 0.384669 -0.371441
v 0.642083 0.384601 -0.286892
v 0.685356 0.384597 -0.195278
v 0.711754 0.384597 -0.109840
v 0.753422 0.260113 0.000000
v 0.744146 0.260113 0.114839
v 0.716547 0.260113 0.226851
v 0.671305 0.260116 0.333279
v 0.609542 0.260190 0.431531
v 0.532870 0.261516 0.519559
v 0.443737 0.267727 0.598112
v 0.344949 0.266488 0.673238
v 0.234189 0.265313 0.747080
v 0.113395 0.266641 0.849693
v 0.000130 0.261615 0.920986
v -0.125402 0.266641 0.849693
v -0.240222 0.265313 0.747080
v -0.346000 0.266488 0.673238
v -0.443830 0.267727 0.598112
v -0.532875 0.261516 0.519559
v -0.609543 0.260190 0.431531
v -0.671305 0.260116 0.333279
v -0.716547 0.260113 0.226851
v -0.744146 0.260113 0.114839
v -0.753422 0.260113 0.000000
v -0.744146 0.260113 -0.114839
v -0.716547 0.260113 -0.204165
v -0.671305 0.260116 -0.299948
v -0.609543 0.260190 -0.388346
v -0.532875 0.261516 -0.467181
v -0.443830 0.267727 -0.534512
v -0.346000 0.266488 -0.588682
v -0.240222 0.265313 -0.628357
v -0.125402 0.266641 -0.652559
v -0.000130 0.261615 -0.660693
v 0.113395 0.266641 -0.652559
v 0.234189 0.265313 -0.628357
v 0.344949 0.266488 -0.588682
v 0.443737 0.267727 -0.534512
v 0.532870 0.261516 -0.467181
v 0.609542 0.260190 -0.388346
v 0.671305 0.260116 -0.299948
v 0.716547 0.260113 -0.204165
v 0.744146 0.260113 -0.114839
v 0.773327 0.131179 0.000000
v 0.763806 0.131179 0.117873
v 0.735478 0.131179 0.232844
v 0.689041 0.131180 0.342084
v 0.625650 0.131225 0.442945
v 0.547026 0.132378 0.533593
v 0.456354 0.140066 0.617751
v 0.358378 0.139505 0.705994
v 0.246589 0.131704 0.752430
v 0.117743 0.131228 0.854823
v 0.000321 0.131190 0.978229
v -0.132119 0.131228 0.854823
v -0.253301 0.131704 0.752430
v -0.359421 0.139505 0.705994
v -0.456433 0.140066 0.617751
v -0.547030 0.132378 0.533593
v -0.625650 0.131225 0.442945
v -0.689041 0.131180 0.342084
v -0.735478 0.131179 0.232844
v -0.763806 0.131179 0.117873
v -0.773327 0.131179 0.000000
v -0.763806 0.131179 -0.117873
v -0.735478 0.131179 -0.209559
v -0.689041 0.131180 -0.307873
v -0.625650 0.131225 -0.398606
v -0.547030 0.132378 -0.479523
v -0.456433 0.140066 -0.548633
v -0.359421 0.139505 -0.604235
v -0.253301 0.131704 -0.644957
v -0.132119 0.131228 -0.669799
v -0.000321 0.131190 -0.678148
v 0.117743 0.131228 -0.669799
v 0.246589 0.131704 -0.644957
v 0.358378 0.139505 -0.604235
v 0.456354 0.140066 -0.548633
v 0.547026 0.132378 -0.479523
v 0.625650 0.131225 -0.398606
v 0.689041 0.131180 -0.307873
v 0.735478 0.131179 -0.209559
v 0.763806 0.131179 -0.117873
v 0.780000 0.000000 0.000000
v 0.770397 0.000000 0.118890
v 0.741824 0.000000 0.234853
v 0.694987 0.000000 0.345037
v 0.631054 0.000016 0.446784
v 0.551829 0.000479 0.538526
v 0.461206 0.003958 0.627307
v 0.365942 0.004024 0.739241
v 0.255496 0.000247 0.835720
v 0.120998 0.000001 0.917305
v 0.000520 0.000000 1.001599
v -0.136070 0.000001 0.917305
v -0.262359 0.000247 0.835720
v -0.366968 0.004024 0.739241
v -0.461281 0.003958 0.627307
v -0.551833 0.000479 0.538526
v -0.631054 0.000016 0.446784
v -0.694987 0.000000 0.345037
v -0.741824 0.000000 0.234853
v -0.770397 0.000000 0.118890
v -0.780000 0.000000 0.000000
v -0.770397 0.000000 -0.118890
v -0.741824 0.000000 -0.211368
v -0.694987 0.000000 -0.310530
v -0.631054 0.000016 -0.402045
v -0.551833 0.000479 -0.483661
v -0.461281 0.003958 -0.553368
v -0.366968 0.004024 -0.609448
v -0.262359 0.000247 -0.650523
v -0.136070 0.000001 -0.675579
v -0.000520 0.000000 -0.684000
v 0.120998 0.000001 -0.675579
v 0.255496 0.000247 -0.650523
v 0.365942 0.004024 -0.609448
v 0.461206 0.003958 -0.553368
v 0.551829 0.000479 -0.483661
v 0.631054 0.000016 -0.402045
v 0.694987 0.000000 -0.310530
v 0.741824 0.000000 -0.211368
v 0.770397 0.000000 -0.118890
v 0.773327 -0.133137 0.000000
v 0.763806 -0.133137 0.117873
v 0.735478 -0.133137 0.232844
v 0.689042 -0.133137 0.342086
v 0.625661 -0.133133 0.442980
v 0.547169 -0.133046 0.534145
v 0.457652 -0.132462 0.623604
v 0.363899 -0.132505 0.739003
v 0.254447 -0.133099 0.843196
v 0.120820 -0.133137 0.911009
v 0.000546 -0.133137 0.973791
v -0.134608 -0.133137 0.911009
v -0.260886 -0.133099 0.843196
v -0.364900 -0.132505 0.739003
v -0.457729 -0.132462 0.623604
v -0.547173 -0.133046 0.534145
v -0.625661 -0.133133 0.442980
v -0.689042 -0.133137 0.342086
v -0.735478 -0.133137 0.232844
v -0.763806 -0.133137 0.117873
v -0.773327 -0.133137 0.000000
v -0.763806 -0.133137 -0.117873
v -0.735478 -0.133137 -0.209559
v -0.689042 -0.133137 -0.307873
v -0.625661 -0.133133 -0.398606
v -0.547173 -0.133046 -0.479523
v -0.457729 -0.132462 -0.548633
v -0.364900 -0.132505 -0.604235
v -0.260886 -0.133099 -0.644957
v -0.134608 -0.133137 -0.669799
v -0.000546 -0.133137 -0.678148
v 0.120820 -0.133137 -0.669799
v 0.254447 -0.133099 -0.644957
v 0.363899 -0.132505 -0.604235
v 0.457652 -0.132462 -0.548633
v 0.547169 -0.133046 -0.479523
v 0.625661 -0.133133 -0.398606
v 0.689042 -0.133137 -0.307873
v 0.735478 -0.133137 -0.209559
v 0.763806 -0.133137 -0.117873
v 0.753422 -0.263995 0.000000
v 0.744146 -0.263995 0.114839
v 0.716547 -0.263995 0.226851
v 0.671307 -0.263995 0.333284
v 0.609564 -0.263995 0.431597
v 0.533100 -0.263987 0.520420
v 0.445491 -0.263950 0.605603
v 0.351421 -0.263962 0.703504
v 0.242656 -0.263994 0.786653
v 0.116757 -0.263996 0.849339
v 0.000375 -0.263996 0.900112
v -0.127810 -0.263996 0.849339
v -0.248209 -0.263994 0.786653
v -0.352388 -0.263962 0.703504
v -0.445576 -0.263950 0.605603
v -0.533105 -0.263987 0.520420
v -0.609564 -0.263995 0.431597
v -0.671307 -0.263995 0.333284
v -0.716547 -0.263995 0.226851
v -0.744146 -0.263995 0.114839
v -0.753422 -0.263995 0.000000
v -0.744146 -0.263995 -0.114839
v -0.716547 -0.263995 -0.204165
v -0.671307 -0.263995 -0.299948
v -0.609564 -0.263995 -0.388346
v -0.533105 -0.263987 -0.467181
v -0.445576 -0.263950 -0.534512
v -0.352388 -0.263962 -0.588682
v -0.248209 -0.263994 -0.628357
v -0.127810 -0.263996 -0.652559
v -0.000375 -0.263996 -0.660693
v 0.116757 -0.263996 -0.652559
v 0.242656 -0.263994 -0.628357
v 0.351421 -0.263962 -0.588682
v 0.445491 -0.263950 -0.534512
v 0.533100 -0.263987 -0.467181
v 0.609564 -0.263995 -0.388346
v 0.671307 -0.263995 -0.299948
v 0.716547 -0.263995 -0.204165
v 0.744146 -0.263995 -0.114839
v 0.720626 -0.390337 0.000000
v 0.711754 -0.390337 0.109840
v 0.685357 -0.390337 0.216977
v 0.642087 -0.390337 0.318779
v 0.583035 -0.390337 0.412824
v 0.509856 -0.390337 0.497583
v 0.425264 -0.390336 0.575374
v 0.331811 -0.390338 0.650909
v 0.226141 -0.390349 0.711157
v 0.110716 -0.390379 0.761111
v 0.000175 -0.390401 0.793475
v -0.118568 -0.390379 0.761111
v -0.230573 -0.390349 0.711157
v -0.332736 -0.390338 0.650909
v -0.425366 -0.390336 0.575374
v -0.509864 -0.390337 0.497583
v -0.583036 -0.390337 0.412824
v -0.642087 -0.390337 0.318779
v -0.685357 -0.390337 0.216977
v -0.711754 -0.390337 0.109840
v -0.720626 -0.390337 0.000000
v -0.711754 -0.390337 -0.109840
v -0.685357 -0.390337 -0.195278
v -0.642087 -0.390337 -0.286892
v -0.583036 -0.390337 -0.371441
v -0.509864 -0.390337 -0.446845
v -0.425366 -0.390336 -0.511245
v -0.332736 -0.390338 -0.563057
v -0.230573 -0.390349 -0.601005
v -0.118568 -0.390379 -0.624153
v -0.000175 -0.390401 -0.631934
v 0.110716 -0.390379 -0.624153
v 0.226141 -0.390349 -0.601005
v 0.331811 -0.390338 -0.563057
v 0.425264 -0.390336 -0.511245
v 0.509856 -0.390337 -0.446845
v 0.583035 -0.390337 -0.371441
v 0.642087 -0.390337 -0.286892
v 0.685357 -0.390337 -0.195278
v 0.711754 -0.390337 -0.109840
v 0.675500 -0.510000 0.000000
v 0.667184 -0.510000 0.102962
v 0.642440 -0.510000 0.203391
v 0.601881 -0.510000 0.298822
v 0.546528 -0.510000 0.386976
v 0.477857 -0.510001 0.466144
v 0.397856 -0.510009 0.536114
v 0.308165 -0.510077 0.597246
v 0.208881 -0.510426 0.649525
v 0.103736 -0.511280 0.700987
v 0.000059 -0.511871 0.729743
v -0.108766 -0.511280 0.700987
v -0.212187 -0.510426 0.649525
v -0.309040 -0.510077 0.597246
v -0.397987 -0.510009 0.536114
v -0.477871 -0.510001 0.466144
v -0.546530 -0.510000 0.386976
v -0.601882 -0.510000 0.298822
v -0.642440 -0.510000 0.203391
v -0.667184 -0.510000 0.102962
v -0.675500 -0.510000 0.000000
v -0.667184 -0.510000 -0.102962
v -0.642440 -0.510000 -0.183050
v -0.601882 -0.510000 -0.268926
v -0.546530 -0.510000 -0.348181
v -0.477871 -0.510001 -0.418863
v -0.397987 -0.510009 -0.479230
v -0.309040 -0.510077 -0.527798
v -0.212187 -0.510426 -0.563369
v -0.108766 -0.511280 -0.585068
v -0.000059 -0.511871 -0.592361
v 0.103736 -0.511280 -0.585068
v 0.208881 -0.510426 -0.563369
v 0.308165 -0.510077 -0.527798
v 0.397856 -0.510009 -0.479230
v 0.477857 -0.510001 -0.418863
v 0.546528 -0.510000 -0.348181
v 0.601881 -0.510000 -0.268926
v 0.642440 -0.510000 -0.183050
v 0.667184 -0.510000 -0.102962
v 0.618817 -0.620937 0.000000
v 0.611198 -0.620937 0.094323
v 0.588531 -0.620937 0.186325
v 0.551377 -0.620937 0.273751
v 0.500664 -0.620940 0.354498
v 0.437680 -0.620960 0.426790
v 0.363990 -0.621110 0.489484
v 0.281088 -0.621998 0.542564
v 0.190487 -0.625412 0.589441
v 0.095453 -0.632206 0.633307
v 0.000016 -0.636428 0.654800
v -0.098424 -0.632206 0.633307
v -0.192818 -0.625412 0.589441
v -0.281901 -0.621998 0.542564
v -0.364162 -0.621110 0.489484
v -0.437708 -0.620960 0.426790
v -0.500668 -0.620940 0.354498
v -0.551378 -0.620937 0.273751
v -0.588532 -0.620937 0.186325
v -0.611198 -0.620937 0.094323
v -0.618817 -0.620937 0.000000
v -0.611198 -0.620937 -0.094322
v -0.588532 -0.620937 -0.186321
v -0.551378 -0.620937 -0.246360
v -0.500668 -0.620940 -0.318964
v -0.437708 -0.620960 -0.383714
v -0.364162 -0.621110 -0.439016
v -0.281901 -0.621998 -0.483508
v -0.192818 -0.625412 -0.516094
v -0.098424 -0.632206 -0.535973
v -0.000016 -0.636428 -0.542654
v 0.095453 -0.632206 -0.535973
v 0.190487 -0.625412 -0.516094
v 0.281088 -0.621998 -0.483508
v 0.363990 -0.621110 -0.439016
v 0.437680 -0.620960 -0.383714
v 0.500664 -0.620940 -0.318964
v 0.551377 -0.620937 -0.246360
v 0.588531 -0.620937 -0.186321
v 0.611198 -0.620937 -0.094322
v 0.551545 -0.721250 0.000000
v 0.544755 -0.721251 0.084070
v 0.524553 -0.721253 0.166073
v 0.491437 -0.721262 0.243999
v 0.446227 -0.721302 0.315967
v 0.390033 -0.721511 0.380364
v 0.324187 -0.722544 0.436238
v 0.250158 -0.726716 0.484497
v 0.169734 -0.738389 0.528860
v 0.085477 -0.756947 0.568629
v 0.000004 -0.767215 0.586622
v -0.087136 -0.756947 0.568629
v -0.171307 -0.738389 0.528860
v -0.250895 -0.726716 0.484497
v -0.324413 -0.722544 0.436238
v -0.390088 -0.721511 0.380364
v -0.446239 -0.721302 0.315967
v -0.491440 -0.721262 0.243999
v -0.524554 -0.721253 0.166073
v -0.544756 -0.721251 0.084070
v -0.551546 -0.721250 0.000000
v -0.544756 -0.721251 -0.084068
v -0.524554 -0.721253 -0.166066
v -0.491440 -0.721262 -0.219578
v -0.446239 -0.721302 -0.284289
v -0.390088 -0.721511 -0.342000
v -0.324413 -0.722544 -0.391290
v -0.250895 -0.726716 -0.430945
v -0.171307 -0.738389 -0.459989
v -0.087136 -0.756947 -0.477706
v -0.000004 -0.767215 -0.483661
v 0.085477 -0.756947 -0.477706
v 0.169734 -0.738389 -0.459989
v 0.250158 -0.726716 -0.430945
v 0.324187 -0.722544 -0.391290
v 0.390033 -0.721511 -0.342000
v 0.446227 -0.721302 -0.284289
v 0.491437 -0.721262 -0.219578
v 0.524553 -0.721253 -0.166066
v 0.544755 -0.721251 -0.084068
v 0.474836 -0.809250 0.000000
v 0.468990 -0.809256 0.072381
v 0.451596 -0.809282 0.142987
v 0.423082 -0.809365 0.210098
v 0.384145 -0.809640 0.272132
v 0.335729 -0.810591 0.327829
v 0.278986 -0.813694 0.376711
v 0.215273 -0.822227 0.419775
v 0.146233 -0.839559 0.458643
v 0.073837 -0.861479 0.490217
v 0.000001 -0.872248 0.503250
v -0.074733 -0.861479 0.490217
v -0.147260 -0.839559 0.458643
v -0.215920 -0.822227 0.419775
v -0.279275 -0.813694 0.376711
v -0.335835 -0.810591 0.327829
v -0.384182 -0.809640 0.272132
v -0.423096 -0.809365 0.210098
v -0.451602 -0.809282 0.142987
v -0.468994 -0.809256 0.072381
v -0.474839 -0.809250 0.000000
v -0.468994 -0.809256 -0.072376
v -0.451602 -0.809282 -0.142969
v -0.423096 -0.809365 -0.189038
v -0.384182 -0.809640 -0.244750
v -0.335835 -0.810591 -0.294434
v -0.279275 -0.813694 -0.336869
v -0.215920 -0.822227 -0.371009
v -0.147260 -0.839559 -0.396013
v -0.074733 -0.861479 -0.411266
v -0.000001 -0.872248 -0.416393
v 0.073837 -0.861479 -0.411266
v 0.146233 -0.839559 -0.396013
v 0.215273 -0.822227 -0.371009
v 0.278986 -0.813694 -0.336869
v 0.335729 -0.810591 -0.294434
v 0.384145 -0.809640 -0.244750
v 0.423082 -0.809365 -0.189038
v 0.451596 -0.809282 -0.142969
v 0.468990 -0.809256 -0.072376
v 0.389994 -0.883642 0.000000
v 0.385191 -0.883682 0.059471
v 0.370901 -0.883831 0.117499
v 0.347472 -0.884205 0.172703
v 0.315476 -0.885111 0.223847
v 0.275687 -0.887267 0.269993
v 0.229073 -0.892057 0.310690
v 0.176790 -0.901241 0.345944
v 0.120193 -0.915032 0.375298
v 0.060772 -0.929074 0.396142
v 0.000000 -0.935235 0.403918
v -0.061249 -0.929074 0.396142
v -0.120846 -0.915032 0.375298
v -0.177332 -0.901241 0.345944
v -0.229414 -0.892057 0.310690
v -0.275872 -0.887267 0.269993
v -0.315571 -0.885111 0.223847
v -0.347523 -0.884205 0.172703
v -0.370932 -0.883831 0.117499
v -0.385213 -0.883682 0.059471
v -0.390013 -0.883642 0.000000
v -0.385213 -0.883682 -0.059445
v -0.370932 -0.883831 -0.117426
v -0.347523 -0.884205 -0.172516
v -0.315571 -0.885111 -0.201023
v -0.275872 -0.887267 -0.241831
v -0.229414 -0.892057 -0.276684
v -0.177332 -0.901241 -0.304724
v -0.120846 -0.915032 -0.325261
v -0.061249 -0.929074 -0.337789
v -0.000000 -0.935235 -0.342000
v 0.060772 -0.929074 -0.337789
v 0.120193 -0.915032 -0.325261
v 0.176790 -0.901241 -0.304724
v 0.229073 -0.892057 -0.276684
v 0.275687 -0.887267 -0.241831
v 0.315476 -0.885111 -0.201023
v 0.347472 -0.884205 -0.172516
v 0.370901 -0.883831 -0.117426
v 0.385191 -0.883682 -0.059445
v 0.298453 -0.943955 0.000000
v 0.294776 -0.944077 0.045589
v 0.283833 -0.944490 0.090098
v 0.265892 -0.945338 0.132498
v 0.241391 -0.946901 0.171856
v 0.210933 -0.949610 0.207390
v 0.175272 -0.953932 0.238461
v 0.135303 -0.960004 0.264455
v 0.092039 -0.967019 0.284532
v 0.046569 -0.972931 0.297464
v 0.000000 -0.975281 0.301966
v -0.046821 -0.972931 0.297464
v -0.092441 -0.967019 0.284532
v -0.135725 -0.960004 0.264455
v -0.175631 -0.953932 0.238461
v -0.211204 -0.949610 0.207390
v -0.241585 -0.946901 0.171856
v -0.266032 -0.945338 0.132498
v -0.283939 -0.944490 0.090098
v -0.294865 -0.944077 0.045589
v -0.298537 -0.943955 0.000000
v -0.294865 -0.944077 -0.045497
v -0.283939 -0.944490 -0.089874
v -0.266032 -0.945338 -0.132038
v -0.241585 -0.946901 -0.170951
v -0.211204 -0.949610 -0.185089
v -0.175631 -0.953932 -0.211765
v -0.135725 -0.960004 -0.233226
v -0.092441 -0.967019 -0.248944
v -0.046821 -0.972931 -0.258533
v -0.000000 -0.975281 -0.261755
v 0.046569 -0.972931 -0.258533
v 0.092039 -0.967019 -0.248944
v 0.135303 -0.960004 -0.233226
v 0.175272 -0.953932 -0.211765
v 0.210933 -0.949610 -0.185089
v 0.241391 -0.946901 -0.170951
v 0.265892 -0.945338 -0.132038
v 0.283833 -0.944490 -0.089874
v 0.294776 -0.944077 -0.045497
v 0.201773 -0.990262 0.000000
v 0.199286 -0.990435 0.030959
v 0.191884 -0.990971 0.061194
v 0.179750 -0.991919 0.090001
v 0.163185 -0.993339 0.116718
v 0.142600 -0.995269 0.140727
v 0.118507 -0.997659 0.161456
v 0.091507 -1.000300 0.178362
v 0.062269 -1.002791 0.190930
v 0.031517 -1.004603 0.198698
v 0.000000 -1.005270 0.201329
v -0.031645 -1.004603 0.198698
v -0.062499 -1.002791 0.190930
v -0.091796 -1.000300 0.178362
v -0.118816 -0.997659 0.161456
v -0.142900 -0.995269 0.140727
v -0.163463 -0.993339 0.116718
v -0.180002 -0.991919 0.090001
v -0.192114 -0.990971 0.061194
v -0.199503 -0.990435 0.030959
v -0.201986 -0.990262 0.000000
v -0.199503 -0.990435 -0.030771
v -0.192114 -0.990971 -0.060784
v -0.180002 -0.991919 -0.089301
v -0.163463 -0.993339 -0.115619
v -0.142900 -0.995269 -0.139090
v -0.118816 -0.997659 -0.159136
v -0.091796 -1.000300 -0.175263
v -0.062499 -1.002791 -0.187075
v -0.031645 -1.004603 -0.174853
v -0.000000 -1.005270 -0.177032
v 0.031517 -1.004603 -0.174853
v 0.062269 -1.002791 -0.187075
v 0.091507 -1.000300 -0.175263
v 0.118507 -0.997659 -0.159136
v 0.142600 -0.995269 -0.139090
v 0.163185 -0.993339 -0.115619
v 0.179750 -0.991919 -0.089301
v 0.191884 -0.990971 -0.060784
v 0.199286 -0.990435 -0.030771
v 0.101688 -1.021002 0.000000
v 0.100435 -1.021086 0.015703
v 0.096707 -1.021334 0.031028
v 0.090596 -1.021734 0.045606
v 0.082254 -1.022260 0.059084
v 0.071887 -1.022874 0.071130
v 0.059752 -1.023522 0.081445
v 0.046147 -1.024138 0.089765
v 0.031409 -1.024649 0.095873
v 0.015900 -1.024987 0.099606
v 0.000000 -1.025106 0.100861
v -0.015954 -1.024987 0.099606
v -0.031513 -1.024649 0.095873
v -0.046295 -1.024138 0.089765
v -0.059934 -1.023522 0.081445
v -0.072094 -1.022874 0.071130
v -0.082479 -1.022260 0.059084
v -0.090831 -1.021734 0.045606
v -0.096948 -1.021334 0.031028
v -0.100679 -1.021086 0.015703
v -0.101933 -1.021002 0.000000
v -0.100679 -1.021086 -0.015518
v -0.096948 -1.021334 -0.030654
v -0.090831 -1.021734 -0.045036
v -0.082479 -1.022260 -0.058308
v -0.072094 -1.022874 -0.070145
v -0.059934 -1.023522 -0.080254
v -0.046295 -1.024138 -0.088388
v -0.031513 -1.024649 -0.094345
v -0.015954 -1.024987 -0.097979
v -0.000000 -1.025106 -0.099200
v 0.015900 -1.024987 -0.097979
v 0.031409 -1.024649 -0.094345
v 0.046147 -1.024138 -0.088388
v 0.059752 -1.023522 -0.080254
v 0.071887 -1.022874 -0.070145
v 0.082254 -1.022260 -0.058308
v 0.090596 -1.021734 -0.045036
v 0.096707 -1.021334 -0.030654
v 0.100435 -1.021086 -0.015518
v 0.000000 -1.032078 0.000000
v 0.000000 -1.032078 0.000000
v 0.000000 -1.032078 0.000000
v 0.000000 -1.032078 0.000000
v 0.000000 -1.032078 0.000000
v 0.000000 -1.032078 0.000000
v 0.000000 -1.032078 0.000000
v 0.000000 -1.032078 0.000000
v 0.000000 -1.032078 0.000000
v 0.000000 -1.032078 0.000000
v 0.000000 -1.032078 0.000000
v -0.000000 -1.032078 0.000000
v -0.000000 -1.032078 0.000000
v -0.000000 -1.032078 0.000000
v -0.000000 -1.032078 0.000000
v -0.000000 -1.032078 0.000000
v -0.000000 -1.032078 0.000000
v -0.000000 -1.032078 0.000000
v -0.000000 -1.032078 0.000000
v -0.000000 -1.032078 0.000000
v -0.000000 -1.032078 0.000000
v -0.000000 -1.032078 -0.000000
v -0.000000 -1.032078 -0.000000
v -0.000000 -1.032078 -0.000000
v -0.000000 -1.032078 -0.000000
v -0.000000 -1.032078 -0.000000
v -0.000000 -1.032078 -0.000000
v -0.000000 -1.032078 -0.000000
v -0.000000 -1.032078 -0.000000
v -0.000000 -1.032078 -0.000000
v -0.000000 -1.032078 -0.000000
v 0.000000 -1.032078 -0.000000
v 0.000000 -1.032078 -0.000000
v 0.000000 -1.032078 -0.000000
v 0.000000 -1.032078 -0.000000
v 0.000000 -1.032078 -0.000000
v 0.000000 -1.032078 -0.000000
v 0.000000 -1.032078 -0.000000
v 0.000000 -1.032078 -0.000000
v 0.000000 -1.032078 -0.000000
v 0.190000 -0.960000 0.000000
v 0.187661 -0.960000 0.024372
v 0.180701 -0.960000 0.048145
v 0.169291 -0.960000 0.070732
v 0.153713 -0.960000 0.091577
v 0.134350 -0.960000 0.110167
v 0.111679 -0.960000 0.126045
v 0.086258 -0.960000 0.138819
v 0.058713 -0.960000 0.148175
v 0.029723 -0.960000 0.153882
v 0.000000 -0.960000 0.155800
v -0.029723 -0.960000 0.153882
v -0.058713 -0.960000 0.148175
v -0.086258 -0.960000 0.138819
v -0.111679 -0.960000 0.126045
v -0.134350 -0.960000 0.110167
v -0.153713 -0.960000 0.091577
v -0.169291 -0.960000 0.070732
v -0.180701 -0.960000 0.048145
v -0.187661 -0.960000 0.024372
v -0.190000 -0.960000 0.000000
v -0.187661 -0.960000 -0.024372
v -0.180701 -0.960000 -0.048145
v -0.169291 -0.960000 -0.070732
v -0.153713 -0.960000 -0.091577
v -0.134350 -0.960000 -0.110167
v -0.111679 -0.960000 -0.126045
v -0.086258 -0.960000 -0.138819
v -0.058713 -0.960000 -0.148175
v -0.029723 -0.960000 -0.153882
v -0.000000 -0.960000 -0.155800
v 0.029723 -0.960000 -0.153882
v 0.058713 -0.960000 -0.148175
v 0.086258 -0.960000 -0.138819
v 0.111679 -0.960000 -0.126045
v 0.134350 -0.960000 -0.110167
v 0.153713 -0.960000 -0.091577
v 0.169291 -0.960000 -0.070732
v 0.180701 -0.960000 -0.048145
v 0.187661 -0.960000 -0.024372
v 0.270000 -1.220000 0.000000
v 0.266676 -1.220000 0.034635
v 0.256785 -1.220000 0.068416
v 0.240572 -1.220000 0.100513
v 0.218435 -1.220000 0.130136
v 0.190919 -1.220000 0.156553
v 0.158702 -1.220000 0.179116
v 0.122577 -1.220000 0.197269
v 0.083435 -1.220000 0.210564
v 0.042237 -1.220000 0.218674
v 0.000000 -1.220000 0.221400
v -0.042237 -1.220000 0.218674
v -0.083435 -1.220000 0.210564
v -0.122577 -1.220000 0.197269
v -0.158702 -1.220000 0.179116
v -0.190919 -1.220000 0.156553
v -0.218435 -1.220000 0.130136
v -0.240572 -1.220000 0.100513
v -0.256785 -1.220000 0.068416
v -0.266676 -1.220000 0.034635
v -0.270000 -1.220000 0.000000
v -0.266676 -1.220000 -0.034635
v -0.256785 -1.220000 -0.068416
v -0.240572 -1.220000 -0.100513
v -0.218435 -1.220000 -0.130136
v -0.190919 -1.220000 -0.156553
v -0.158702 -1.220000 -0.179116
v -0.122577 -1.220000 -0.197269
v -0.083435 -1.220000 -0.210564
v -0.042237 -1.220000 -0.218674
v -0.000000 -1.220000 -0.221400
v 0.042237 -1.220000 -0.218674
v 0.083435 -1.220000 -0.210564
v 0.122577 -1.220000 -0.197269
v 0.158702 -1.220000 -0.179116
v 0.190919 -1.220000 -0.156553
v 0.218435 -1.220000 -0.130136
v 0.240572 -1.220000 -0.100513
v 0.256785 -1.220000 -0.068416
v 0.266676 -1.220000 -0.034635
v 0.780000 -1.420000 -0.100000
v 0.770397 -1.420000 -0.046812
v 0.741824 -1.420000 0.005066
v 0.694985 -1.420000 0.054357
v 0.631033 -1.420000 0.099847
v 0.551543 -1.420000 0.140416
v 0.458472 -1.420000 0.175066
v 0.354113 -1.420000 0.202942
v 0.241033 -1.420000 0.223359
v 0.122019 -1.420000 0.235814
v 0.000000 -1.420000 0.240000
v -0.122019 -1.420000 0.235814
v -0.241033 -1.420000 0.223359
v -0.354113 -1.420000 0.202942
v -0.458472 -1.420000 0.175066
v -0.551543 -1.420000 0.140416
v -0.631033 -1.420000 0.099847
v -0.694985 -1.420000 0.054357
v -0.741824 -1.420000 0.005066
v -0.770397 -1.420000 -0.046812
v -0.780000 -1.420000 -0.100000
v -0.770397 -1.420000 -0.153188
v -0.741824 -1.420000 -0.205066
v -0.694985 -1.420000 -0.254357
v -0.631033 -1.420000 -0.299847
v -0.551543 -1.420000 -0.340416
v -0.458472 -1.420000 -0.375066
v -0.354113 -1.420000 -0.402942
v -0.241033 -1.420000 -0.423359
v -0.122019 -1.420000 -0.435814
v -0.000000 -1.420000 -0.440000
v 0.122019 -1.420000 -0.435814
v 0.241033 -1.420000 -0.423359
v 0.354113 -1.420000 -0.402942
v 0.458472 -1.420000 -0.375066
v 0.551543 -1.420000 -0.340416
v 0.631033 -1.420000 -0.299847
v 0.694985 -1.420000 -0.254357
v 0.741824 -1.420000 -0.205066
v 0.770397 -1.420000 -0.153188
f 1 41 2
f 2 41 42
f 2 42 3
f 3 42 43
f 3 43 4
f 4 43 44
f 4 44 5
f 5 44 45
f 5 45 6
f 6 45 46
f 6 46 7
f 7 46 47
f 7 47 8
f 8 47 48
f 8 48 9
f 9 48 49
f 9 49 10
f 10 49 50
f 10 50 11
f 11 50 51
f 11 51 12
f 12 51 52
f 12 52 13
f 13 52 53
f 13 53 14
f 14 53 54
f 14 54 15
f 15 54 55
f 15 55 16
f 16 55 56
f 16 56 17
f 17 56 57
f 17 57 18
f 18 57 58
f 18 58 19
f 19 58 59
f 19 59 20
f 20 59 60
f 20 60 21
f 21 60 61
f 21 61 22
f 22 61 62
f 22 62 23
f 23 62 63
f 23 63 24
f 24 63 64
f 24 64 25
f 25 64 65
f 25 65 26
f 26 65 66
f 26 66 27
f 27 66 67
f 27 67 28
f 28 67 68
f 28 68 29
f 29 68 69
f 29 69 30
f 30 69 70
f 30 70 31
f 31 70 71
f 31 71 32
f 32 71 72
f 32 72 33
f 33 72 73
f 33 73 34
f 34 73 74
f 34 74 35
f 35 74 75
f 35 75 36
f 36 75 76
f 36 76 37
f 37 76 77
f 37 77 38
f 38 77 78
f 38 78 39
f 39 78 79
f 39 79 40
f 40 79 80
f 40 80 1
f 1 80 41
f 41 81 42
f 42 81 82
f 42 82 43
f 43 82 83
f 43 83 44
f 44 83 84
f 44 84 45
f 45 84 85
f 45 85 46
f 46 85 86
f 46 86 47
f 47 86 87
f 47 87 48
f 48 87 88
f 48 88 49
f 49 88 89
f 49 89 50
f 50 89 90
f 50 90 51
f 51 90 91
f 51 91 52
f 52 91 92
f 52 92 53
f 53 92 93
f 53 93 54
f 54 93 94
f 54 94 55
f 55 94 95
f 55 95 56
f 56 95 96
f 56 96 57
f 57 96 97
f 57 97 58
f 58 97 98
f 58 98 59
f 59 98 99
f 59 99 60
f 60 99 100
f 60 100 61
f 61 100 101
f 61 101 62
f 62 101 102
f 62 102 63
f 63 102 103
f 63 103 64
f 64 103 104
f 64 104 65
f 65 104 105
f 65 105 66
f 66 105 106
f 66 106 67
f 67 106 107
f 67 107 68
f 68 107 108
f 68 108 69
f 69 108 109
f 69 109 70
f 70 109 110
f 70 110 71
f 71 110 111
f 71 111 72
f 72 111 112
f 72 112 73
f 73 112 113
f 73 113 74
f 74 113 114
f 74 114 75
f 75 114 115
f 75 115 76
f 76 115 116
f 76 116 77
f 77 116 117
f 77 117 78
f 78 117 118
f 78 118 79
f 79 118 119
f 79 119 80
f 80 119 120
f 80 120 41
f 41 120 81
f 81 121 82
f 82 121 122
f 82 122 83
f 83 122 123
f 83 123 84
f 84 123 124
f 84 124 85
f 85 124 125
f 85 125 86
f 86 125 126
f 86 126 87
f 87 126 127
f 87 127 88
f 88 127 128
f 88 128 89
f 89 128 129
f 89 129 90
f 90 129 130
f 90 130 91
f 91 130 131
f 91 131 92
f 92 131 132
f 92 132 93
f 93 132 133
f 93 133 94
f 94 133 134
f 94 134 95
f 95 134 135
f 95 135 96
f 96 135 136
f 96 136 97
f 97 136 137
f 97 137 98
f 98 137 138
f 98 138 99
f 99 138 139
f 99 139 100
f 100 139 140
f 100 140 101
f 101 140 141
f 101 141 102
f 102 141 142
f 102 142 103
f 103 142 143
f 103 143 104
f 104 143 144
f 104 144 105
f 105 144 145
f 105 145 106
f 106 145 146
f 106 146 107
f 107 146 147
f 107 147 108
f 108 147 148
f 108 148 109
f 109 148 149
f 109 149 110
f 110 149 150
f 110 150 111
f 111 150 151
f 111 151 112
f 112 151 152
f 112 152 113
f 113 152 153
f 113 153 114
f 114 153 154
f 114 154 115
f 115 154 155
f 115 155 116
f 116 155 156
f 116 156 117
f 117 156 157
f 117 157 118
f 118 157 158
f 118 158 119
f 119 158 159
f 119 159 120
f 120 159 160
f 120 160 81
f 81 160 121
f 121 161 122
f 122 161 162
f 122 162 123
f 123 162 163
f 123 163 124
f 124 163 164
f 124 164 125
f 125 164 165
f 125 165 126
f 126 165 166
f 126 166 127
f 127 166 167
f 127 167 128
f 128 167 168
f 128 168 129
f 129 168 169
f 129 169 130
f 130 169 170
f 130 170 131
f 131 170 171
f 131 171 132
f 132 171 172
f 132 172 133
f 133 172 173
f 133 173 134
f 134 173 174
f 134 174 135
f 135 174 175
f 135 175 136
f 136 175 176
f 136 176 137
f 137 176 177
f 137 177 138
f 138 177 178
f 138 178 139
f 139 178 179
f 139 179 140
f 140 179 180
f 140 180 141
f 141 180 181
f 141 181 142
f 142 181 182
f 142 182 143
f 143 182 183
f 143 183 144
f 144 183 184
f 144 184 145
f 145 184 185
f 145 185 146
f 146 185 186
f 146 186 147
f 147 186 187
f 147 187 148
f 148 187 188
f 148 188 149
f 149 188 189
f 149 189 150
f 150 189 190
f 150 190 151
f 151 190 191
f 151 191 152
f 152 191 192
f 152 192 153
f 153 192 193
f 153 193 154
f 154 193 194
f 154 194 155
f 155 194 195
f 155 195 156
f 156 195 196
f 156 196 157
f 157 196 197
f 157 197 158
f 158 197 198
f 158 198 159
f 159 198 199
f 159 199 160
f 160 199 200
f 160 200 121
f 121 200 161
f 161 201 162
f 162 201 202
f 162 202 163
f 163 202 203
f 163 203 164
f 164 203 204
f 164 204 165
f 165 204 205
f 165 205 166
f 166 205 206
f 166 206 167
f 167 206 207
f 167 207 168
f 168 207 208
f 168 208 169
f 169 208 209
f 169 209 170
f 170 209 210
f 170 210 171
f 171 210 211
f 171 211 172
f 172 211 212
f 172 212 173
f 173 212 213
f 173 213 174
f 174 213 214
f 174 214 175
f 175 214 215
f 175 215 176
f 176 215 216
f 176 216 177
f 177 216 217
f 177 217 178
f 178 217 218
f 178 218 179
f 179 218 219
f 179 219 180
f 180 219 220
f 180 220 181
f 181 220 221
f 181 221 182
f 182 221 222
f 182 222 183
f 183 222 223
f 183 223 184
f 184 223 224
f 184 224 185
f 185 224 225
f 185 225 186
f 186 225 226
f 186 226 187
f 187 226 227
f 187 227 188
f 188 227 228
f 188 228 189
f 189 228 229
f 189 229 190
f 190 229 230
f 190 230 191
f 191 230 231
f 191 231 192
f 192 231 232
f 192 232 193
f 193 232 233
f 193 233 194
f 194 233 234
f 194 234 195
f 195 234 235
f 195 235 196
f 196 235 236
f 196 236 197
f 197 236 237
f 197 237 198
f 198 237 238
f 198 238 199
f 199 238 239
f 199 239 200
f 200 239 240
f 200 240 161
f 161 240 201
f 201 241 202
f 202 241 242
f 202 242 203
f 203 242 243
f 203 243 204
f 204 243 244
f 204 244 205
f 205 244 245
f 205 245 206
f 206 245 246
f 206 246 207
f 207 246 247
f 207 247 208
f 208 247 248
f 208 248 209
f 209 248 249
f 209 249 210
f 210 249 250
f 210 250 211
f 211 250 251
f 211 251 212
f 212 251 252
f 212 252 213
f 213 252 253
f 213 253 214
f 214 253 254
f 214 254 215
f 215 254 255
f 215 255 216
f 216 255 256
f 216 256 217
f 217 256 257
f 217 257 218
f 218 257 258
f 218 258 219
f 219 258 259
f 219 259 220
f 220 259 260
f 220 260 221
f 221 260 261
f 221 261 222
f 222 261 262
f 222 262 223
f 223 262 263
f 223 263 224
f 224 263 264
f 224 264 225
f 225 264 265
f 225 265 226
f 226 265 266
f 226 266 227
f 227 266 267
f 227 267 228
f 228 267 268
f 228 268 229
f 229 268 269
f 229 269 230
f 230 269 270
f 230 270 231
f 231 270 271
f 231 271 232
f 232 271 272
f 232 272 233
f 233 272 273
f 233 273 234
f 234 273 274
f 234 274 235
f 235 274 275
f 235 275 236
f 236 275 276
f 236 276 237
f 237 276 277
f 237 277 238
f 238 277 278
f 238 278 239
f 239 278 279
f 239 279 240
f 240 279 280
f 240 280 201
f 201 280 241
f 241 281 242
f 242 281 282
f 242 282 243
f 243 282 283
f 243 283 244
f 244 283 284
f 244 284 245
f 245 284 285
f 245 285 246
f 246 285 286
f 246 286 247
f 247 286 287
f 247 287 248
f 248 287 288
f 248 288 249
f 249 288 289
f 249 289 250
f 250 289 290
f 250 290 251
f 251 290 291
f 251 291 252
f 252 291 292
f 252 292 253
f 253 292 293
f 253 293 254
f 254 293 294
f 254 294 255
f 255 294 295
f 255 295 256
f 256 295 296
f 256 296 257
f 257 296 297
f 257 297 258
f 258 297 298
f 258 298 259
f 259 298 299
f 259 299 260
f 260 299 300
f 260 300 261
f 261 300 301
f 261 301 262
f 262 301 302
f 262 302 263
f 263 302 303
f 263 303 264
f 264 303 304
f 264 304 265
f 265 304 305
f 265 305 266
f 266 305 306
f 266 306 267
f 267 306 307
f 267 307 268
f 268 307 308
f 268 308 269
f 269 308 309
f 269 309 270
f 270 309 310
f 270 310 271
f 271 310 311
f 271 311 272
f 272 311 312
f 272 312 273
f 273 312 313
f 273 313 274
f 274 313 314
f 274 314 275
f 275 314 315
f 275 315 276
f 276 315 316
f 276 316 277
f 277 316 317
f 277 317 278
f 278 317 318
f 278 318 279
f 279 318 319
f 279 319 280
f 280 319 320
f 280 320 241
f 241 320 281
f 281 321 282
f 282 321 322
f 282 322 283
f 283 322 323
f 283 323 284
f 284 323 324
f 284 324 285
f 285 324 325
f 285 325 286
f 286 325 326
f 286 326 287
f 287 326 327
f 287 327 288
f 288 327 328
f 288 328 289
f 289 328 329
f 289 329 290
f 290 329 330
f 290 330 291
f 291 330 331
f 291 331 292
f 292 331 332
f 292 332 293
f 293 332 333
f 293 333 294
f 294 333 334
f 294 334 295
f 295 334 335
f 295 335 296
f 296 335 336
f 296 336 297
f 297 336 337
f 297 337 298
f 298 337 338
f 298 338 299
f 299 338 339
f 299 339 300
f 300 339 340
f 300 340 301
f 301 340 341
f 301 341 302
f 302 341 342
f 302 342 303
f 303 342 343
f 303 343 304
f 304 343 344
f 304 344 305
f 305 344 345
f 305 345 306
f 306 345 346
f 306 346 307
f 307 346 347
f 307 347 308
f 308 347 348
f 308 348 309
f 309 348 349
f 309 349 310
f 310 349 350
f 310 350 311
f 311 350 351
f 311 351 312
f 312 351 352
f 312 352 313
f 313 352 353
f 313 353 314
f 314 353 354
f 314 354 315
f 315 354 355
f 315 355 316
f 316 355 356
f 316 356 317
f 317 356 357
f 317 357 318
f 318 357 358
f 318 358 319
f 319 358 359
f 319 359 320
f 320 359 360
f 320 360 281
f 281 360 321
f 321 361 322
f 322 361 362
f 322 362 323
f 323 362 363
f 323 363 324
f 324 363 364
f 324 364 325
f 325 364 365
f 325 365 326
f 326 365 366
f 326 366 327
f 327 366 367
f 327 367 328
f 328 367 368
f 328 368 329
f 329 368 369
f 329 369 330
f 330 369 370
f 330 370 331
f 331 370 371
f 331 371 332
f 332 371 372
f 332 372 333
f 333 372 373
f 333 373 334
f 334 373 374
f 334 374 335
f 335 374 375
f 335 375 336
f 336 375 376
f 336 376 337
f 337 376 377
f 337 377 338
f 338 377 378
f 338 378 339
f 339 378 379
f 339 379 340
f 340 379 380
f 340 380 341
f 341 380 381
f 341 381 342
f 342 381 382
f 342 382 343
f 343 382 383
f 343 383 344
f 344 383 384
f 344 384 345
f 345 384 385
f 345 385 346
f 346 385 386
f 346 386 347
f 347 386 387
f 347 387 348
f 348 387 388
f 348 388 349
f 349 388 389
f 349 389 350
f 350 389 390
f 350 390 351
f 351 390 391
f 351 391 352
f 352 391 392
f 352 392 353
f 353 392 393
f 353 393 354
f 354 393 394
f 354 394 355
f 355 394 395
f 355 395 356
f 356 395 396
f 356 396 357
f 357 396 397
f 357 397 358
f 358 397 398
f 358 398 359
f 359 398 399
f 359 399 360
f 360 399 400
f 360 400 321
f 321 400 361
f 361 401 362
f 362 401 402
f 362 402 363
f 363 402 403
f 363 403 364
f 364 403 404
f 364 404 365
f 365 404 405
f 365 405 366
f 366 405 406
f 366 406 367
f 367 406 407
f 367 407 368
f 368 407 408
f 368 408 369
f 369 408 409
f 369 409 370
f 370 409 410
f 370 410 371
f 371 410 411
f 371 411 372
f 372 411 412
f 372 412 373
f 373 412 413
f 373 413 374
f 374 413 414
f 374 414 375
f 375 414 415
f 375 415 376
f 376 415 416
f 376 416 377
f 377 416 417
f 377 417 378
f 378 417 418
f 378 418 379
f 379 418 419
f 379 419 380
f 380 419 420
f 380 420 381
f 381 420 421
f 381 421 382
f 382 421 422
f 382 422 383
f 383 422 423
f 383 423 384
f 384 423 424
f 384 424 385
f 385 424 425
f 385 425 386
f 386 425 426
f 386 426 387
f 387 426 427
f 387 427 388
f 388 427 428
f 388 428 389
f 389 428 429
f 389 429 390
f 390 429 430
f 390 430 391
f 391 430 431
f 391 431 392
f 392 431 432
f 392 432 393
f 393 432 433
f 393 433 394
f 394 433 434
f 394 434 395
f 395 434 435
f 395 435 396
f 396 435 436
f 396 436 397
f 397 436 437
f 397 437 398
f 398 437 438
f 398 438 399
f 399 438 439
f 399 439 400
f 400 439 440
f 400 440 361
f 361 440 401
f 401 441 402
f 402 441 442
f 402 442 403
f 403 442 443
f 403 443 404
f 404 443 444
f 404 444 405
f 405 444 445
f 405 445 406
f 406 445 446
f 406 446 407
f 407 446 447
f 407 447 408
f 408 447 448
f 408 448 409
f 409 448 449
f 409 449 410
f 410 449 450
f 410 450 411
f 411 450 451
f 411 451 412
f 412 451 452
f 412 452 413
f 413 452 453
f 413 453 414
f 414 453 454
f 414 454 415
f 415 454 455
f 415 455 416
f 416 455 456
f 416 456 417
f 417 456 457
f 417 457 418
f 418 457 458
f 418 458 419
f 419 458 459
f 419 459 420
f 420 459 460
f 420 460 421
f 421 460 461
f 421 461 422
f 422 461 462
f 422 462 423
f 423 462 463
f 423 463 424
f 424 463 464
f 424 464 425
f 425 464 465
f 425 465 426
f 426 465 466
f 426 466 427
f 427 466 467
f 427 467 428
f 428 467 468
f 428 468 429
f 429 468 469
f 429 469 430
f 430 469 470
f 430 470 431
f 431 470 471
f 431 471 432
f 432 471 472
f 432 472 433
f 433 472 473
f 433 473 434
f 434 473 474
f 434 474 435
f 435 474 475
f 435 475 436
f 436 475 476
f 436 476 437
f 437 476 477
f 437 477 438
f 438 477 478
f 438 478 439
f 439 478 479
f 439 479 440
f 440 479 480
f 440 480 401
f 401 480 441
f 441 481 442
f 442 481 482
f 442 482 443
f 443 482 483
f 443 483 444
f 444 483 484
f 444 484 445
f 445 484 485
f 445 485 446
f 446 485 486
f 446 486 447
f 447 486 487
f 447 487 448
f 448 487 488
f 448 488 449
f 449 488 489
f 449 489 450
f 450 489 490
f 450 490 451
f 451 490 491
f 451 491 452
f 452 491 492
f 452 492 453
f 453 492 493
f 453 493 454
f 454 493 494
f 454 494 455
f 455 494 495
f 455 495 456
f 456 495 496
f 456 496 457
f 457 496 497
f 457 497 458
f 458 497 498
f 458 498 459
f 459 498 499
f 459 499 460
f 460 499 500
f 460 500 461
f 461 500 501
f 461 501 462
f 462 501 502
f 462 502 463
f 463 502 503
f 463 503 464
f 464 503 504
f 464 504 465
f 465 504 505
f 465 505 466
f 466 505 506
f 466 506 467
f 467 506 507
f 467 507 468
f 468 507 508
f 468 508 469
f 469 508 509
f 469 509 470
f 470 509 510
f 470 510 471
f 471 510 511
f 471 511 472
f 472 511 512
f 472 512 473
f 473 512 513
f 473 513 474
f 474 513 514
f 474 514 475
f 475 514 515
f 475 515 476
f 476 515 516
f 476 516 477
f 477 516 517
f 477 517 478
f 478 517 518
f 478 518 479
f 479 518 519
f 479 519 480
f 480 519 520
f 480 520 441
f 441 520 481
f 481 521 482
f 482 521 522
f 482 522 483
f 483 522 523
f 483 523 484
f 484 523 524
f 484 524 485
f 485 524 525
f 485 525 486
f 486 525 526
f 486 526 487
f 487 526 527
f 487 527 488
f 488 527 528
f 488 528 489
f 489 528 529
f 489 529 490
f 490 529 530
f 490 530 491
f 491 530 531
f 491 531 492
f 492 531 532
f 492 532 493
f 493 532 533
f 493 533 494
f 494 533 534
f 494 534 495
f 495 534 535
f 495 535 496
f 496 535 536
f 496 536 497
f 497 536 537
f 497 537 498
f 498 537 538
f 498 538 499
f 499 538 539
f 499 539 500
f 500 539 540
f 500 540 501
f 501 540 541
f 501 541 502
f 502 541 542
f 502 542 503
f 503 542 543
f 503 543 504
f 504 543 544
f 504 544 505
f 505 544 545
f 505 545 506
f 506 545 546
f 506 546 507
f 507 546 547
f 507 547 508
f 508 547 548
f 508 548 509
f 509 548 549
f 509 549 510
f 510 549 550
f 510 550 511
f 511 550 551
f 511 551 512
f 512 551 552
f 512 552 513
f 513 552 553
f 513 553 514
f 514 553 554
f 514 554 515
f 515 554 555
f 515 555 516
f 516 555 556
f 516 556 517
f 517 556 557
f 517 557 518
f 518 557 558
f 518 558 519
f 519 558 559
f 519 559 520
f 520 559 560
f 520 560 481
f 481 560 521
f 521 561 522
f 522 561 562
f 522 562 523
f 523 562 563
f 523 563 524
f 524 563 564
f 524 564 525
f 525 564 565
f 525 565 526
f 526 565 566
f 526 566 527
f 527 566 567
f 527 567 528
f 528 567 568
f 528 568 529
f 529 568 569
f 529 569 530
f 530 569 570
f 530 570 531
f 531 570 571
f 531 571 532
f 532 571 572
f 532 572 533
f 533 572 573
f 533 573 534
f 534 573 574
f 534 574 535
f 535 574 575
f 535 575 536
f 536 575 576
f 536 576 537
f 537 576 577
f 537 577 538
f 538 577 578
f 538 578 539
f 539 578 579
f 539 579 540
f 540 579 580
f 540 580 541
f 541 580 581
f 541 581 542
f 542 581 582
f 542 582 543
f 543 582 583
f 543 583 544
f 544 583 584
f 544 584 545
f 545 584 585
f 545 585 546
f 546 585 586
f 546 586 547
f 547 586 587
f 547 587 548
f 548 587 588
f 548 588 549
f 549 588 589
f 549 589 550
f 550 589 590
f 550 590 551
f 551 590 591
f 551 591 552
f 552 591 592
f 552 592 553
f 553 592 593
f 553 593 554
f 554 593 594
f 554 594 555
f 555 594 595
f 555 595 556
f 556 595 596
f 556 596 557
f 557 596 597
f 557 597 558
f 558 597 598
f 558 598 559
f 559 598 599
f 559 599 560
f 560 599 600
f 560 600 521
f 521 600 561
f 561 601 562
f 562 601 602
f 562 602 563
f 563 602 603
f 563 603 564
f 564 603 604
f 564 604 565
f 565 604 605
f 565 605 566
f 566 605 606
f 566 606 567
f 567 606 607
f 567 607 568
f 568 607 608
f 568 608 569
f 569 608 609
f 569 609 570
f 570 609 610
f 570 610 571
f 571 610 611
f 571 611 572
f 572 611 612
f 572 612 573
f 573 612 613
f 573 613 574
f 574 613 614
f 574 614 575
f 575 614 615
f 575 615 576
f 576 615 616
f 576 616 577
f 577 616 617
f 577 617 578
f 578 617 618
f 578 618 579
f 579 618 619
f 579 619 580
f 580 619 620
f 580 620 581
f 581 620 621
f 581 621 582
f 582 621 622
f 582 622 583
f 583 622 623
f 583 623 584
f 584 623 624
f 584 624 585
f 585 624 625
f 585 625 586
f 586 625 626
f 586 626 587
f 587 626 627
f 587 627 588
f 588 627 628
f 588 628 589
f 589 628 629
f 589 629 590
f 590 629 630
f 590 630 591
f 591 630 631
f 591 631 592
f 592 631 632
f 592 632 593
f 593 632 633
f 593 633 594
f 594 633 634
f 594 634 595
f 595 634 635
f 595 635 596
f 596 635 636
f 596 636 597
f 597 636 637
f 597 637 598
f 598 637 638
f 598 638 599
f 599 638 639
f 599 639 600
f 600 639 640
f 600 640 561
f 561 640 601
f 601 641 602
f 602 641 642
f 602 642 603
f 603 642 643
f 603 643 604
f 604 643 644
f 604 644 605
f 605 644 645
f 605 645 606
f 606 645 646
f 606 646 607
f 607 646 647
f 607 647 608
f 608 647 648
f 608 648 609
f 609 648 649
f 609 649 610
f 610 649 650
f 610 650 611
f 611 650 651
f 611 651 612
f 612 651 652
f 612 652 613
f 613 652 653
f 613 653 614
f 614 653 654
f 614 654 615
f 615 654 655
f 615 655 616
f 616 655 656
f 616 656 617
f 617 656 657
f 617 657 618
f 618 657 658
f 618 658 619
f 619 658 659
f 619 659 620
f 620 659 660
f 620 660 621
f 621 660 661
f 621 661 622
f 622 661 662
f 622 662 623
f 623 662 663
f 623 663 624
f 624 663 664
f 624 664 625
f 625 664 665
f 625 665 626
f 626 665 666
f 626 666 627
f 627 666 667
f 627 667 628
f 628 667 668
f 628 668 629
f 629 668 669
f 629 669 630
f 630 669 670
f 630 670 631
f 631 670 671
f 631 671 632
f 632 671 672
f 632 672 633
f 633 672 673
f 633 673 634
f 634 673 674
f 634 674 635
f 635 674 675
f 635 675 636
f 636 675 676
f 636 676 637
f 637 676 677
f 637 677 638
f 638 677 678
f 638 678 639
f 639 678 679
f 639 679 640
f 640 679 680
f 640 680 601
f 601 680 641
f 641 681 642
f 642 681 682
f 642 682 643
f 643 682 683
f 643 683 644
f 644 683 684
f 644 684 645
f 645 684 685
f 645 685 646
f 646 685 686
f 646 686 647
f 647 686 687
f 647 687 648
f 648 687 688
f 648 688 649
f 649 688 689
f 649 689 650
f 650 689 690
f 650 690 651
f 651 690 691
f 651 691 652
f 652 691 692
f 652 692 653
f 653 692 693
f 653 693 654
f 654 693 694
f 654 694 655
f 655 694 695
f 655 695 656
f 656 695 696
f 656 696 657
f 657 696 697
f 657 697 658
f 658 697 698
f 658 698 659
f 659 698 699
f 659 699 660
f 660 699 700
f 660 700 661
f 661 700 701
f 661 701 662
f 662 701 702
f 662 702 663
f 663 702 703
f 663 703 664
f 664 703 704
f 664 704 665
f 665 704 705
f 665 705 666
f 666 705 706
f 666 706 667
f 667 706 707
f 667 707 668
f 668 707 708
f 668 708 669
f 669 708 709
f 669 709 670
f 670 709 710
f 670 710 671
f 671 710 711
f 671 711 672
f 672 711 712
f 672 712 673
f 673 712 713
f 673 713 674
f 674 713 714
f 674 714 675
f 675 714 715
f 675 715 676
f 676 715 716
f 676 716 677
f 677 716 717
f 677 717 678
f 678 717 718
f 678 718 679
f 679 718 719
f 679 719 680
f 680 719 720
f 680 720 641
f 641 720 681
f 681 721 682
f 682 721 722
f 682 722 683
f 683 722 723
f 683 723 684
f 684 723 724
f 684 724 685
f 685 724 725
f 685 725 686
f 686 725 726
f 686 726 687
f 687 726 727
f 687 727 688
f 688 727 728
f 688 728 689
f 689 728 729
f 689 729 690
f 690 729 730
f 690 730 691
f 691 730 731
f 691 731 692
f 692 731 732
f 692 732 693
f 693 732 733
f 693 733 694
f 694 733 734
f 694 734 695
f 695 734 735
f 695 735 696
f 696 735 736
f 696 736 697
f 697 736 737
f 697 737 698
f 698 737 738
f 698 738 699
f 699 738 739
f 699 739 700
f 700 739 740
f 700 740 701
f 701 740 741
f 701 741 702
f 702 741 742
f 702 742 703
f 703 742 743
f 703 743 704
f 704 743 744
f 704 744 705
f 705 744 745
f 705 745 706
f 706 745 746
f 706 746 707
f 707 746 747
f 707 747 708
f 708 747 748
f 708 748 709
f 709 748 749
f 709 749 710
f 710 749 750
f 710 750 711
f 711 750 751
f 711 751 712
f 712 751 752
f 712 752 713
f 713 752 753
f 713 753 714
f 714 753 754
f 714 754 715
f 715 754 755
f 715 755 716
f 716 755 756
f 716 756 717
f 717 756 757
f 717 757 718
f 718 757 758
f 718 758 719
f 719 758 759
f 719 759 720
f 720 759 760
f 720 760 681
f 681 760 721
f 721 761 722
f 722 761 762
f 722 762 723
f 723 762 763
f 723 763 724
f 724 763 764
f 724 764 725
f 725 764 765
f 725 765 726
f 726 765 766
f 726 766 727
f 727 766 767
f 727 767 728
f 728 767 768
f 728 768 729
f 729 768 769
f 729 769 730
f 730 769 770
f 730 770 731
f 731 770 771
f 731 771 732
f 732 771 772
f 732 772 733
f 733 772 773
f 733 773 734
f 734 773 774
f 734 774 735
f 735 774 775
f 735 775 736
f 736 775 776
f 736 776 737
f 737 776 777
f 737 777 738
f 738 777 778
f 738 778 739
f 739 778 779
f 739 779 740
f 740 779 780
f 740 780 741
f 741 780 781
f 741 781 742
f 742 781 782
f 742 782 743
f 743 782 783
f 743 783 744
f 744 783 784
f 744 784 745
f 745 784 785
f 745 785 746
f 746 785 786
f 746 786 747
f 747 786 787
f 747 787 748
f 748 787 788
f 748 788 749
f 749 788 789
f 749 789 750
f 750 789 790
f 750 790 751
f 751 790 791
f 751 791 752
f 752 791 792
f 752 792 753
f 753 792 793
f 753 793 754
f 754 793 794
f 754 794 755
f 755 794 795
f 755 795 756
f 756 795 796
f 756 796 757
f 757 796 797
f 757 797 758
f 758 797 798
f 758 798 759
f 759 798 799
f 759 799 760
f 760 799 800
f 760 800 721
f 721 800 761
f 761 801 762
f 762 801 802
f 762 802 763
f 763 802 803
f 763 803 764
f 764 803 804
f 764 804 765
f 765 804 805
f 765 805 766
f 766 805 806
f 766 806 767
f 767 806 807
f 767 807 768
f 768 807 808
f 768 808 769
f 769 808 809
f 769 809 770
f 770 809 810
f 770 810 771
f 771 810 811
f 771 811 772
f 772 811 812
f 772 812 773
f 773 812 813
f 773 813 774
f 774 813 814
f 774 814 775
f 775 814 815
f 775 815 776
f 776 815 816
f 776 816 777
f 777 816 817
f 777 817 778
f 778 817 818
f 778 818 779
f 779 818 819
f 779 819 780
f 780 819 820
f 780 820 781
f 781 820 821
f 781 821 782
f 782 821 822
f 782 822 783
f 783 822 823
f 783 823 784
f 784 823 824
f 784 824 785
f 785 824 825
f 785 825 786
f 786 825 826
f 786 826 787
f 787 826 827
f 787 827 788
f 788 827 828
f 788 828 789
f 789 828 829
f 789 829 790
f 790 829 830
f 790 830 791
f 791 830 831
f 791 831 792
f 792 831 832
f 792 832 793
f 793 832 833
f 793 833 794
f 794 833 834
f 794 834 795
f 795 834 835
f 795 835 796
f 796 835 836
f 796 836 797
f 797 836 837
f 797 837 798
f 798 837 838
f 798 838 799
f 799 838 839
f 799 839 800
f 800 839 840
f 800 840 761
f 761 840 801
f 801 841 802
f 802 841 842
f 802 842 803
f 803 842 843
f 803 843 804
f 804 843 844
f 804 844 805
f 805 844 845
f 805 845 806
f 806 845 846
f 806 846 807
f 807 846 847
f 807 847 808
f 808 847 848
f 808 848 809
f 809 848 849
f 809 849 810
f 810 849 850
f 810 850 811
f 811 850 851
f 811 851 812
f 812 851 852
f 812 852 813
f 813 852 853
f 813 853 814
f 814 853 854
f 814 854 815
f 815 854 855
f 815 855 816
f 816 855 856
f 816 856 817
f 817 856 857
f 817 857 818
f 818 857 858
f 818 858 819
f 819 858 859
f 819 859 820
f 820 859 860
f 820 860 821
f 821 860 861
f 821 861 822
f 822 861 862
f 822 862 823
f 823 862 863
f 823 863 824
f 824 863 864
f 824 864 825
f 825 864 865
f 825 865 826
f 826 865 866
f 826 866 827
f 827 866 867
f 827 867 828
f 828 867 868
f 828 868 829
f 829 868 869
f 829 869 830
f 830 869 870
f 830 870 831
f 831 870 871
f 831 871 832
f 832 871 872
f 832 872 833
f 833 872 873
f 833 873 834
f 834 873 874
f 834 874 835
f 835 874 875
f 835 875 836
f 836 875 876
f 836 876 837
f 837 876 877
f 837 877 838
f 838 877 878
f 838 878 839
f 839 878 879
f 839 879 840
f 840 879 880
f 840 880 801
f 801 880 841
f 841 881 842
f 842 881 882
f 842 882 843
f 843 882 883
f 843 883 844
f 844 883 884
f 844 884 845
f 845 884 885
f 845 885 846
f 846 885 886
f 846 886 847
f 847 886 887
f 847 887 848
f 848 887 888
f 848 888 849
f 849 888 889
f 849 889 850
f 850 889 890
f 850 890 851
f 851 890 891
f 851 891 852
f 852 891 892
f 852 892 853
f 853 892 893
f 853 893 854
f 854 893 894
f 854 894 855
f 855 894 895
f 855 895 856
f 856 895 896
f 856 896 857
f 857 896 897
f 857 897 858
f 858 897 898
f 858 898 859
f 859 898 899
f 859 899 860
f 860 899 900
f 860 900 861
f 861 900 901
f 861 901 862
f 862 901 902
f 862 902 863
f 863 902 903
f 863 903 864
f 864 903 904
f 864 904 865
f 865 904 905
f 865 905 866
f 866 905 906
f 866 906 867
f 867 906 907
f 867 907 868
f 868 907 908
f 868 908 869
f 869 908 909
f 869 909 870
f 870 909 910
f 870 910 871
f 871 910 911
f 871 911 872
f 872 911 912
f 872 912 873
f 873 912 913
f 873 913 874
f 874 913 914
f 874 914 875
f 875 914 915
f 875 915 876
f 876 915 916
f 876 916 877
f 877 916 917
f 877 917 878
f 878 917 918
f 878 918 879
f 879 918 919
f 879 919 880
f 880 919 920
f 880 920 841
f 841 920 881
f 881 921 882
f 882 921 922
f 882 922 883
f 883 922 923
f 883 923 884
f 884 923 924
f 884 924 885
f 885 924 925
f 885 925 886
f 886 925 926
f 886 926 887
f 887 926 927
f 887 927 888
f 888 927 928
f 888 928 889
f 889 928 929
f 889 929 890
f 890 929 930
f 890 930 891
f 891 930 931
f 891 931 892
f 892 931 932
f 892 932 893
f 893 932 933
f 893 933 894
f 894 933 934
f 894 934 895
f 895 934 935
f 895 935 896
f 896 935 936
f 896 936 897
f 897 936 937
f 897 937 898
f 898 937 938
f 898 938 899
f 899 938 939
f 899 939 900
f 900 939 940
f 900 940 901
f 901 940 941
f 901 941 902
f 902 941 942
f 902 942 903
f 903 942 943
f 903 943 904
f 904 943 944
f 904 944 905
f 905 944 945
f 905 945 906
f 906 945 946
f 906 946 907
f 907 946 947
f 907 947 908
f 908 947 948
f 908 948 909
f 909 948 949
f 909 949 910
f 910 949 950
f 910 950 911
f 911 950 951
f 911 951 912
f 912 951 952
f 912 952 913
f 913 952 953
f 913 953 914
f 914 953 954
f 914 954 915
f 915 954 955
f 915 955 916
f 916 955 956
f 916 956 917
f 917 956 957
f 917 957 918
f 918 957 958
f 918 958 919
f 919 958 959
f 919 959 920
f 920 959 960
f 920 960 881
f 881 960 921
f 921 961 922
f 922 961 962
f 922 962 923
f 923 962 963
f 923 963 924
f 924 963 964
f 924 964 925
f 925 964 965
f 925 965 926
f 926 965 966
f 926 966 927
f 927 966 967
f 927 967 928
f 928 967 968
f 928 968 929
f 929 968 969
f 929 969 930
f 930 969 970
f 930 970 931
f 931 970 971
f 931 971 932
f 932 971 972
f 932 972 933
f 933 972 973
f 933 973 934
f 934 973 974
f 934 974 935
f 935 974 975
f 935 975 936
f 936 975 976
f 936 976 937
f 937 976 977
f 937 977 938
f 938 977 978
f 938 978 939
f 939 978 979
f 939 979 940
f 940 979 980
f 940 980 941
f 941 980 981
f 941 981 942
f 942 981 982
f 942 982 943
f 943 982 983
f 943 983 944
f 944 983 984
f 944 984 945
f 945 984 985
f 945 985 946
f 946 985 986
f 946 986 947
f 947 986 987
f 947 987 948
f 948 987 988
f 948 988 949
f 949 988 989
f 949 989 950
f 950 989 990
f 950 990 951
f 951 990 991
f 951 991 952
f 952 991 992
f 952 992 953
f 953 992 993
f 953 993 954
f 954 993 994
f 954 994 955
f 955 994 995
f 955 995 956
f 956 995 996
f 956 996 957
f 957 996 997
f 957 997 958
f 958 997 998
f 958 998 959
f 959 998 999
f 959 999 960
f 960 999 1000
f 960 1000 921
f 921 1000 961
f 961 1001 962
f 962 1001 1002
f 962 1002 963
f 963 1002 1003
f 963 1003 964
f 964 1003 1004
f 964 1004 965
f 965 1004 1005
f 965 1005 966
f 966 1005 1006
f 966 1006 967
f 967 1006 1007
f 967 1007 968
f 968 1007 1008
f 968 1008 969
f 969 1008 1009
f 969 1009 970
f 970 1009 1010
f 970 1010 971
f 971 1010 1011
f 971 1011 972
f 972 1011 1012
f 972 1012 973
f 973 1012 1013
f 973 1013 974
f 974 1013 1014
f 974 1014 975
f 975 1014 1015
f 975 1015 976
f 976 1015 1016
f 976 1016 977
f 977 1016 1017
f 977 1017 978
f 978 1017 1018
f 978 1018 979
f 979 1018 1019
f 979 1019 980
f 980 1019 1020
f 980 1020 981
f 981 1020 1021
f 981 1021 982
f 982 1021 1022
f 982 1022 983
f 983 1022 1023
f 983 1023 984
f 984 1023 1024
f 984 1024 985
f 985 1024 1025
f 985 1025 986
f 986 1025 1026
f 986 1026 987
f 987 1026 1027
f 987 1027 988
f 988 1027 1028
f 988 1028 989
f 989 1028 1029
f 989 1029 990
f 990 1029 1030
f 990 1030 991
f 991 1030 1031
f 991 1031 992
f 992 1031 1032
f 992 1032 993
f 993 1032 1033
f 993 1033 994
f 994 1033 1034
f 994 1034 995
f 995 1034 1035
f 995 1035 996
f 996 1035 1036
f 996 1036 997
f 997 1036 1037
f 997 1037 998
f 998 1037 1038
f 998 1038 999
f 999 1038 1039
f 999 1039 1000
f 1000 1039 1040
f 1000 1040 961
f 961 1040 1001
f 1001 1041 1002
f 1002 1041 1042
f 1002 1042 1003
f 1003 1042 1043
f 1003 1043 1004
f 1004 1043 1044
f 1004 1044 1005
f 1005 1044 1045
f 1005 1045 1006
f 1006 1045 1046
f 1006 1046 1007
f 1007 1046 1047
f 1007 1047 1008
f 1008 1047 1048
f 1008 1048 1009
f 1009 1048 1049
f 1009 1049 1010
f 1010 1049 1050
f 1010 1050 1011
f 1011 1050 1051
f 1011 1051 1012
f 1012 1051 1052
f 1012 1052 1013
f 1013 1052 1053
f 1013 1053 1014
f 1014 1053 1054
f 1014 1054 1015
f 1015 1054 1055
f 1015 1055 1016
f 1016 1055 1056
f 1016 1056 1017
f 1017 1056 1057
f 1017 1057 1018
f 1018 1057 1058
f 1018 1058 1019
f 1019 1058 1059
f 1019 1059 1020
f 1020 1059 1060
f 1020 1060 1021
f 1021 1060 1061
f 1021 1061 1022
f 1022 1061 1062
f 1022 1062 1023
f 1023 1062 1063
f 1023 1063 1024
f 1024 1063 1064
f 1024 1064 1025
f 1025 1064 1065
f 1025 1065 1026
f 1026 1065 1066
f 1026 1066 1027
f 1027 1066 1067
f 1027 1067 1028
f 1028 1067 1068
f 1028 1068 1029
f 1029 1068 1069
f 1029 1069 1030
f 1030 1069 1070
f 1030 1070 1031
f 1031 1070 1071
f 1031 1071 1032
f 1032 1071 1072
f 1032 1072 1033
f 1033 1072 1073
f 1033 1073 1034
f 1034 1073 1074
f 1034 1074 1035
f 1035 1074 1075
f 1035 1075 1036
f 1036 1075 1076
f 1036 1076 1037
f 1037 1076 1077
f 1037 1077 1038
f 1038 1077 1078
f 1038 1078 1039
f 1039 1078 1079
f 1039 1079 1040
f 1040 1079 1080
f 1040 1080 1001
f 1001 1080 1041
f 1041 1081 1042
f 1042 1081 1082
f 1042 1082 1043
f 1043 1082 1083
f 1043 1083 1044
f 1044 1083 1084
f 1044 1084 1045
f 1045 1084 1085
f 1045 1085 1046
f 1046 1085 1086
f 1046 1086 1047
f 1047 1086 1087
f 1047 1087 1048
f 1048 1087 1088
f 1048 1088 1049
f 1049 1088 1089
f 1049 1089 1050
f 1050 1089 1090
f 1050 1090 1051
f 1051 1090 1091
f 1051 1091 1052
f 1052 1091 1092
f 1052 1092 1053
f 1053 1092 1093
f 1053 1093 1054
f 1054 1093 1094
f 1054 1094 1055
f 1055 1094 1095
f 1055 1095 1056
f 1056 1095 1096
f 1056 1096 1057
f 1057 1096 1097
f 1057 1097 1058
f 1058 1097 1098
f 1058 1098 1059
f 1059 1098 1099
f 1059 1099 1060
f 1060 1099 1100
f 1060 1100 1061
f 1061 1100 1101
f 1061 1101 1062
f 1062 1101 1102
f 1062 1102 1063
f 1063 1102 1103
f 1063 1103 1064
f 1064 1103 1104
f 1064 1104 1065
f 1065 1104 1105
f 1065 1105 1066
f 1066 1105 1106
f 1066 1106 1067
f 1067 1106 1107
f 1067 1107 1068
f 1068 1107 1108
f 1068 1108 1069
f 1069 1108 1109
f 1069 1109 1070
f 1070 1109 1110
f 1070 1110 1071
f 1071 1110 1111
f 1071 1111 1072
f 1072 1111 1112
f 1072 1112 1073
f 1073 1112 1113
f 1073 1113 1074
f 1074 1113 1114
f 1074 1114 1075
f 1075 1114 1115
f 1075 1115 1076
f 1076 1115 1116
f 1076 1116 1077
f 1077 1116 1117
f 1077 1117 1078
f 1078 1117 1118
f 1078 1118 1079
f 1079 1118 1119
f 1079 1119 1080
f 1080 1119 1120
f 1080 1120 1041
f 1041 1120 1081
